<svg width="26" height="26" viewBox="0 0 26 26" fill="none" xmlns="http://www.w3.org/2000/svg">
<g id="Contacts">
<path id="Vector" d="M17.1143 12.5429C18.1242 12.5429 18.9429 11.7243 18.9429 10.7144C18.9429 9.70447 18.1242 8.88579 17.1143 8.88579C16.1044 8.88579 15.2857 9.70447 15.2857 10.7144C15.2857 11.7243 16.1044 12.5429 17.1143 12.5429Z" fill="#23CEC9"/>
<path id="Vector_2" d="M25.8 1.57148C25.8 1.20775 25.6555 0.858925 25.3983 0.601733C25.1411 0.34454 24.7923 0.20005 24.4286 0.20005H8.42857V25.8001H24.4286C24.7923 25.8001 25.1411 25.6556 25.3983 25.3984C25.6555 25.1412 25.8 24.7923 25.8 24.4286V1.57148ZM17.1143 19.8572C15.7581 19.8572 14.4323 19.455 13.3047 18.7016C12.177 17.9481 11.2981 16.8771 10.7791 15.6242C10.2601 14.3712 10.1243 12.9924 10.3889 11.6623C10.6535 10.3321 11.3066 9.11031 12.2655 8.15132C13.2245 7.19233 14.4464 6.53925 15.7765 6.27467C17.1067 6.01008 18.4854 6.14588 19.7384 6.66488C20.9914 7.18388 22.0623 8.06277 22.8158 9.19043C23.5693 10.3181 23.9714 11.6438 23.9714 13.0001C23.9694 14.818 23.2463 16.561 21.9607 17.8465C20.6752 19.132 18.9323 19.8551 17.1143 19.8572Z" fill="#23CEC9"/>
<path id="Vector_3" d="M17.1143 7.05718C15.9854 7.05599 14.8795 7.37659 13.9263 7.98141C12.9731 8.58622 12.212 9.4502 11.7323 10.4721C11.2525 11.494 11.0739 12.6314 11.2175 13.7512C11.3611 14.8709 11.8208 15.9265 12.5429 16.7943V15.7429C12.544 15.0009 12.8026 14.2824 13.2744 13.7098C13.7463 13.1372 14.4022 12.7461 15.1303 12.6032C14.7594 12.2148 14.5108 11.726 14.4152 11.1975C14.3196 10.669 14.3813 10.1241 14.5926 9.6303C14.8038 9.13654 15.1554 8.71567 15.6037 8.41989C16.052 8.12411 16.5772 7.96644 17.1143 7.96644C17.6513 7.96644 18.1766 8.12411 18.6249 8.41989C19.0731 8.71567 19.4247 9.13654 19.636 9.6303C19.8473 10.1241 19.9089 10.669 19.8133 11.1975C19.7178 11.726 19.4691 12.2148 19.0983 12.6032C19.8264 12.7461 20.4823 13.1372 20.9541 13.7098C21.426 14.2824 21.6846 15.0009 21.6857 15.7429V16.7943C22.4078 15.9265 22.8675 14.8709 23.0111 13.7512C23.1546 12.6314 22.9761 11.494 22.4963 10.4721C22.0166 9.4502 21.2555 8.58622 20.3023 7.98141C19.349 7.37659 18.2432 7.05599 17.1143 7.05718Z" fill="#23CEC9"/>
<path id="Vector_4" d="M18.4857 13.4572H15.7429C15.1369 13.4579 14.5559 13.699 14.1274 14.1274C13.6989 14.5559 13.4579 15.1369 13.4571 15.7429V17.6748C14.4992 18.4962 15.7874 18.9429 17.1143 18.9429C18.4411 18.9429 19.7294 18.4962 20.7714 17.6748V15.7429C20.7707 15.1369 20.5296 14.5559 20.1012 14.1274C19.6727 13.699 19.0917 13.4579 18.4857 13.4572Z" fill="#23CEC9"/>
<path id="Vector_5" d="M4.77143 10.2572C4.77143 10.0147 4.6751 9.78217 4.50364 9.61071C4.33218 9.43925 4.09962 9.34292 3.85714 9.34292H1.11428C0.871799 9.34292 0.639247 9.43925 0.467785 9.61071C0.296323 9.78217 0.199997 10.0147 0.199997 10.2572C0.199997 10.4997 0.296323 10.7322 0.467785 10.9037C0.639247 11.0752 0.871799 11.1715 1.11428 11.1715H3.85714C4.09962 11.1715 4.33218 11.0752 4.50364 10.9037C4.6751 10.7322 4.77143 10.4997 4.77143 10.2572Z" fill="#23CEC9"/>
<path id="Vector_6" d="M2.94286 1.57148V2.94291H3.85714C4.34211 2.94291 4.80721 3.13556 5.15014 3.47848C5.49306 3.82141 5.68571 4.28651 5.68571 4.77148C5.68571 5.25645 5.49306 5.72155 5.15014 6.06447C4.80721 6.4074 4.34211 6.60005 3.85714 6.60005H2.94286V8.42862H3.85714C4.34211 8.42862 4.80721 8.62127 5.15014 8.9642C5.49306 9.30712 5.68571 9.77223 5.68571 10.2572C5.68571 10.7422 5.49306 11.2073 5.15014 11.5502C4.80721 11.8931 4.34211 12.0858 3.85714 12.0858H2.94286V14.3715H3.85714C4.34211 14.3715 4.80721 14.5641 5.15014 14.9071C5.49306 15.25 5.68571 15.7151 5.68571 16.2001C5.68571 16.685 5.49306 17.1501 5.15014 17.493C4.80721 17.836 4.34211 18.0286 3.85714 18.0286H2.94286V19.8572H3.85714C4.34211 19.8572 4.80721 20.0498 5.15014 20.3928C5.49306 20.7357 5.68571 21.2008 5.68571 21.6858C5.68571 22.1707 5.49306 22.6358 5.15014 22.9788C4.80721 23.3217 4.34211 23.5143 3.85714 23.5143H2.94286V24.4286C2.94286 24.7923 3.08735 25.1412 3.34454 25.3984C3.60173 25.6556 3.95056 25.8001 4.31428 25.8001H7.51428V0.20005H4.31428C3.95056 0.20005 3.60173 0.34454 3.34454 0.601733C3.08735 0.858925 2.94286 1.20775 2.94286 1.57148Z" fill="#23CEC9"/>
<path id="Vector_7" d="M1.11428 5.68575H3.85714C4.09962 5.68575 4.33218 5.58942 4.50364 5.41796C4.6751 5.2465 4.77143 5.01395 4.77143 4.77146C4.77143 4.52898 4.6751 4.29643 4.50364 4.12497C4.33218 3.9535 4.09962 3.85718 3.85714 3.85718H1.11428C0.871799 3.85718 0.639247 3.9535 0.467785 4.12497C0.296323 4.29643 0.199997 4.52898 0.199997 4.77146C0.199997 5.01395 0.296323 5.2465 0.467785 5.41796C0.639247 5.58942 0.871799 5.68575 1.11428 5.68575Z" fill="#23CEC9"/>
<path id="Vector_8" d="M4.77143 16.2001C4.77143 15.9576 4.6751 15.725 4.50364 15.5536C4.33218 15.3821 4.09962 15.2858 3.85714 15.2858H1.11428C0.871799 15.2858 0.639247 15.3821 0.467785 15.5536C0.296323 15.725 0.199997 15.9576 0.199997 16.2001C0.199997 16.4426 0.296323 16.6751 0.467785 16.8466C0.639247 17.018 0.871799 17.1144 1.11428 17.1144H3.85714C4.09962 17.1144 4.33218 17.018 4.50364 16.8466C4.6751 16.6751 4.77143 16.4426 4.77143 16.2001Z" fill="#23CEC9"/>
<path id="Vector_9" d="M4.77143 21.6857C4.77143 21.4432 4.6751 21.2107 4.50364 21.0392C4.33218 20.8678 4.09962 20.7714 3.85714 20.7714H1.11428C0.871799 20.7714 0.639247 20.8678 0.467785 21.0392C0.296323 21.2107 0.199997 21.4432 0.199997 21.6857C0.199997 21.9282 0.296323 22.1608 0.467785 22.3322C0.639247 22.5037 0.871799 22.6 1.11428 22.6H3.85714C4.09962 22.6 4.33218 22.5037 4.50364 22.3322C4.6751 22.1608 4.77143 21.9282 4.77143 21.6857Z" fill="#23CEC9"/>
</g>
</svg>
