<svg width="236" height="265" viewBox="0 0 236 265" fill="none" xmlns="http://www.w3.org/2000/svg">
<rect width="236" height="265" fill="#1E1E1E"/>
<g clip-path="url(#clip0_0_1)">
<rect width="1440" height="4699" transform="translate(-1029 -3061)" fill="white"/>
<rect x="-1061.5" y="-206.5" width="1504" height="539" fill="#FBFAFE" stroke="#F0EBFA"/>
<rect x="-360.5" y="-139.5" width="471.71" height="354.37" rx="3.5" fill="white" stroke="#E1E5EA"/>
<line x1="-335.595" y1="9.62988" x2="86.3044" y2="9.62988" stroke="#E1E5EA" stroke-width="0.5" stroke-linecap="round" stroke-dasharray="2 2"/>
<line x1="-335.595" y1="59.9448" x2="86.3044" y2="59.9448" stroke="#E1E5EA" stroke-width="0.5" stroke-linecap="round" stroke-dasharray="2 2"/>
<line x1="-335.595" y1="110.252" x2="86.3044" y2="110.252" stroke="#E1E5EA" stroke-width="0.5" stroke-linecap="round" stroke-dasharray="2 2"/>
<line x1="-335.845" y1="160.565" x2="86.5544" y2="160.565" stroke="#E1E5EA" stroke-width="0.5"/>
<path d="M-15 134.417C-15 132.208 -13.2091 130.417 -11 130.417H6.1553C8.36444 130.417 10.1553 132.208 10.1553 134.417V160.813H-15V134.417Z" fill="#EA8D6A"/>
<path d="M-14.8551 179.129V188.584H-13.7841V181.401H-13.6918L-10.7372 188.584H-9.70312L-6.74858 181.401H-6.65625V188.584H-5.58523V179.129H-6.9517L-10.1648 186.977H-10.2756L-13.4886 179.129H-14.8551ZM-1.35076 188.75C-0.113547 188.75 0.532759 188.085 0.75435 187.624H0.809748V188.584H1.89924V183.912C1.89924 181.659 0.181907 181.401 -0.722922 181.401C-1.79395 181.401 -3.0127 181.77 -3.56667 183.063L-2.53258 183.432C-2.29252 182.915 -1.7247 182.361 -0.685991 182.361C0.315785 182.361 0.809748 182.892 0.809748 183.801V183.838C0.809748 184.365 0.274236 184.318 -1.01838 184.485C-2.33407 184.655 -3.7698 184.946 -3.7698 186.571C-3.7698 187.956 -2.69877 188.75 -1.35076 188.75ZM-1.18457 187.771C-2.05247 187.771 -2.68031 187.384 -2.68031 186.627C-2.68031 185.796 -1.92321 185.537 -1.07377 185.426C-0.612127 185.371 0.625089 185.242 0.809748 185.02V186.017C0.809748 186.904 0.108044 187.771 -1.18457 187.771ZM4.33558 191.243C5.31889 191.243 6.01136 190.721 6.42223 189.618L9.44141 181.512L8.25036 181.493L6.29297 187.144H6.21911L4.26172 181.493H3.0799L5.70206 188.621L5.49893 189.175C5.10192 190.255 4.61257 190.357 3.81854 190.154L3.54155 191.114C3.65234 191.169 3.96626 191.243 4.33558 191.243Z" fill="#4E5A65"/>
<rect x="1.10742" y="0.954102" width="233.783" height="263.23" rx="3.5" fill="white" stroke="#E1E5EA"/>
<path d="M34.5871 51.9912H42.4941V50.2909H36.5623V38.9003H34.5871V51.9912ZM47.4511 52.2085C49.0747 52.2085 49.9888 51.384 50.3531 50.6489H50.4298V51.9912H52.2963V45.4713C52.2963 42.6141 50.0463 42.0452 48.4866 42.0452C46.7097 42.0452 45.0733 42.7611 44.4341 44.5509L46.2302 44.96C46.5115 44.2632 47.2274 43.5921 48.5122 43.5921C49.7459 43.5921 50.3787 44.2377 50.3787 45.3499V45.3946C50.3787 46.0914 49.6628 46.0786 47.8986 46.2831C46.0385 46.5004 44.1337 46.9862 44.1337 49.2171C44.1337 51.1475 45.5847 52.2085 47.4511 52.2085ZM47.8666 50.6744C46.7864 50.6744 46.0065 50.1887 46.0065 49.2426C46.0065 48.2199 46.9142 47.8556 48.02 47.7085C48.64 47.6254 50.1102 47.4593 50.3851 47.1844V48.45C50.3851 49.6134 49.4582 50.6744 47.8666 50.6744ZM61.0614 47.9195C61.0678 49.5878 59.8277 50.3804 58.7539 50.3804C57.5713 50.3804 56.7532 49.5239 56.7532 48.1879V42.173H54.8419V48.4181C54.8419 50.8534 56.1779 52.1191 58.0635 52.1191C59.5401 52.1191 60.5436 51.3392 60.9975 50.2909H61.0997V51.9912H62.979V42.173H61.0614V47.9195ZM67.4582 46.1617C67.4582 44.5956 68.417 43.7007 69.7466 43.7007C71.0442 43.7007 71.8304 44.5509 71.8304 45.9763V51.9912H73.7416V45.7462C73.7416 43.3172 72.4057 42.0452 70.3986 42.0452C68.922 42.0452 67.9568 42.7291 67.503 43.771H67.3815V42.173H65.547V51.9912H67.4582V46.1617ZM80.4405 52.1894C82.7608 52.1894 84.2629 50.7959 84.4739 48.8847H82.6138C82.3709 49.9458 81.5463 50.5722 80.4533 50.5722C78.8361 50.5722 77.7942 49.2235 77.7942 47.0821C77.7942 44.9791 78.8552 43.656 80.4533 43.656C81.6677 43.656 82.4092 44.423 82.6138 45.3435H84.4739C84.2693 43.3619 82.6521 42.0452 80.4213 42.0452C77.6535 42.0452 75.8638 44.129 75.8638 47.1269C75.8638 50.0864 77.5896 52.1894 80.4405 52.1894ZM88.4289 46.1617C88.4289 44.5956 89.4197 43.7007 90.7812 43.7007C92.098 43.7007 92.8842 44.5381 92.8842 45.9763V51.9912H94.7954V45.7462C94.7954 43.298 93.4531 42.0452 91.4332 42.0452C89.9055 42.0452 88.985 42.71 88.5248 43.771H88.4034V38.9003H86.5177V51.9912H88.4289V46.1617ZM101.577 52.1894C103.719 52.1894 105.234 51.1347 105.668 49.5367L103.859 49.2107C103.514 50.1375 102.683 50.6105 101.597 50.6105C99.9602 50.6105 98.8608 49.5494 98.8096 47.6574H105.79V46.9798C105.79 43.4323 103.668 42.0452 101.443 42.0452C98.7073 42.0452 96.9048 44.129 96.9048 47.146C96.9048 50.195 98.6818 52.1894 101.577 52.1894ZM98.816 46.2256C98.8927 44.8321 99.9027 43.624 101.456 43.624C102.939 43.624 103.91 44.7235 103.917 46.2256H98.816ZM111.586 52.183C113.375 52.183 114.079 51.0899 114.424 50.4635H114.584V51.9912H116.45V38.9003H114.539V43.7646H114.424C114.079 43.1574 113.427 42.0452 111.598 42.0452C109.227 42.0452 107.482 43.9181 107.482 47.1013C107.482 50.2781 109.201 52.183 111.586 52.183ZM112.008 50.553C110.301 50.553 109.412 49.0509 109.412 47.0821C109.412 45.1325 110.282 43.6688 112.008 43.6688C113.676 43.6688 114.571 45.0303 114.571 47.0821C114.571 49.1468 113.657 50.553 112.008 50.553ZM124.095 51.9912H126.07V47.3889H128.755C131.791 47.3889 133.293 45.5544 133.293 43.1382C133.293 40.7284 131.804 38.9003 128.761 38.9003H124.095V51.9912ZM126.07 45.7142V40.5942H128.55C130.506 40.5942 131.305 41.6553 131.305 43.1382C131.305 44.6212 130.506 45.7142 128.576 45.7142H126.07ZM135.455 51.9912H137.366V45.9955C137.366 44.7107 138.357 43.7838 139.712 43.7838C140.109 43.7838 140.556 43.8541 140.709 43.8989V42.0708C140.518 42.0452 140.141 42.026 139.898 42.026C138.747 42.026 137.763 42.678 137.405 43.7327H137.303V42.173H135.455V51.9912ZM146.148 52.1894C148.915 52.1894 150.724 50.1631 150.724 47.1269C150.724 44.0715 148.915 42.0452 146.148 42.0452C143.38 42.0452 141.571 44.0715 141.571 47.1269C141.571 50.1631 143.38 52.1894 146.148 52.1894ZM146.154 50.585C144.345 50.585 143.501 49.0061 143.501 47.1205C143.501 45.2412 144.345 43.6432 146.154 43.6432C147.95 43.6432 148.794 45.2412 148.794 47.1205C148.794 49.0061 147.95 50.585 146.154 50.585ZM152.858 42.173V52.6176C152.858 53.5253 152.48 54.0239 151.573 54.0239H151.266V55.6666C151.4 55.673 151.522 55.673 151.656 55.673C153.689 55.673 154.769 54.5992 154.769 52.6304V42.173H152.858ZM153.804 40.6581C154.462 40.6581 155.012 40.1468 155.012 39.5203C155.012 38.8939 154.462 38.3762 153.804 38.3762C153.139 38.3762 152.595 38.8939 152.595 39.5203C152.595 40.1468 153.139 40.6581 153.804 40.6581ZM161.572 52.1894C163.713 52.1894 165.228 51.1347 165.662 49.5367L163.853 49.2107C163.508 50.1375 162.677 50.6105 161.591 50.6105C159.954 50.6105 158.855 49.5494 158.804 47.6574H165.784V46.9798C165.784 43.4323 163.662 42.0452 161.437 42.0452C158.701 42.0452 156.899 44.129 156.899 47.146C156.899 50.195 158.676 52.1894 161.572 52.1894ZM158.81 46.2256C158.887 44.8321 159.897 43.624 161.45 43.624C162.933 43.624 163.905 44.7235 163.911 46.2256H158.81ZM172.04 52.1894C174.36 52.1894 175.863 50.7959 176.073 48.8847H174.213C173.97 49.9458 173.146 50.5722 172.053 50.5722C170.436 50.5722 169.394 49.2235 169.394 47.0821C169.394 44.9791 170.455 43.656 172.053 43.656C173.267 43.656 174.009 44.423 174.213 45.3435H176.073C175.869 43.3619 174.252 42.0452 172.021 42.0452C169.253 42.0452 167.463 44.129 167.463 47.1269C167.463 50.0864 169.189 52.1894 172.04 52.1894ZM182.7 42.173H180.687V39.8208H178.776V42.173H177.337V43.7071H178.776V49.5047C178.769 51.2881 180.131 52.151 181.639 52.1191C182.247 52.1127 182.656 51.9976 182.879 51.9145L182.534 50.3357C182.406 50.3612 182.17 50.4188 181.863 50.4188C181.243 50.4188 180.687 50.2142 180.687 49.1084V43.7071H182.7V42.173ZM192.014 44.57C191.617 43.0423 190.422 42.0452 188.3 42.0452C186.082 42.0452 184.509 43.2149 184.509 44.9536C184.509 46.347 185.353 47.2739 187.194 47.683L188.856 48.0473C189.802 48.2583 190.243 48.6801 190.243 49.2938C190.243 50.0544 189.431 50.6489 188.178 50.6489C187.034 50.6489 186.299 50.1567 186.069 49.1915L184.222 49.4727C184.541 51.2114 185.986 52.1894 188.191 52.1894C190.563 52.1894 192.205 50.9301 192.205 49.1531C192.205 47.7661 191.323 46.9095 189.521 46.4941L187.961 46.1361C186.881 45.8804 186.414 45.5161 186.421 44.8513C186.414 44.097 187.232 43.5601 188.319 43.5601C189.508 43.5601 190.058 44.2185 190.281 44.8769L192.014 44.57Z" fill="#35414B"/>
<path d="M36.9318 225.182V229.341C36.9318 230.065 36.5852 230.455 35.9773 230.455C35.4233 230.455 35.0227 230.131 35.0227 229.636H34.3295C34.3295 230.531 35.0227 231.08 35.9773 231.08C36.9886 231.08 37.6364 230.457 37.6364 229.341V225.182H36.9318ZM40.2415 231.102C41.0028 231.102 41.4006 230.693 41.5369 230.409H41.571V231H42.2415V228.125C42.2415 226.739 41.1847 226.58 40.6278 226.58C39.9688 226.58 39.2188 226.807 38.8778 227.602L39.5142 227.83C39.6619 227.511 40.0114 227.17 40.6506 227.17C41.267 227.17 41.571 227.497 41.571 228.057V228.08C41.571 228.403 41.2415 228.375 40.446 228.477C39.6364 228.582 38.7528 228.761 38.7528 229.761C38.7528 230.614 39.4119 231.102 40.2415 231.102ZM40.3438 230.5C39.8097 230.5 39.4233 230.261 39.4233 229.795C39.4233 229.284 39.8892 229.125 40.4119 229.057C40.696 229.023 41.4574 228.943 41.571 228.807V229.42C41.571 229.966 41.1392 230.5 40.3438 230.5ZM44.1357 228.375C44.1357 227.614 44.6072 227.182 45.2493 227.182C45.8714 227.182 46.2493 227.588 46.2493 228.273V231H46.9197V228.227C46.9197 227.114 46.326 226.58 45.4425 226.58C44.7834 226.58 44.3743 226.875 44.1697 227.318H44.1129V226.636H43.4652V231H44.1357V228.375Z" fill="#4E5A65"/>
<path d="M36.6143 115.864H39.3728V117H40.2109V115.864H40.9808V115.119H40.2109V111.182H39.1285L36.6143 115.153V115.864ZM39.3785 115.119H37.5348V115.074L39.333 112.227H39.3785V115.119ZM44.0021 117.08C45.218 117.091 46.0248 116.216 46.022 115.099C46.0248 113.986 45.2152 113.188 44.2066 113.188C43.593 113.188 43.0617 113.483 42.7634 113.974H42.7208C42.7237 112.653 43.2237 111.869 44.0759 111.869C44.6356 111.869 44.9879 112.21 45.1072 112.693H45.9737C45.8402 111.773 45.1157 111.102 44.0759 111.102C42.7237 111.102 41.8799 112.264 41.8799 114.287C41.8771 116.429 42.968 117.071 44.0021 117.08ZM43.9992 116.341C43.3231 116.341 42.8288 115.773 42.8288 115.119C42.8316 114.469 43.3487 113.901 44.0191 113.901C44.6839 113.901 45.1725 114.438 45.1697 115.111C45.1725 115.798 44.664 116.341 43.9992 116.341Z" fill="#4E5A65"/>
<path d="M33 131C33 128.791 34.7909 127 37 127H46C48.2091 127 50 128.791 50 131V216H33V131Z" fill="#F3F5F9"/>
<path d="M74.6143 102.864H77.3728V104H78.2109V102.864H78.9808V102.119H78.2109V98.1818H77.1285L74.6143 102.153V102.864ZM77.3785 102.119H75.5348V102.074L77.333 99.2273H77.3785V102.119ZM82.0021 104.08C83.218 104.091 84.0248 103.216 84.022 102.099C84.0248 100.986 83.2152 100.188 82.2066 100.188C81.593 100.188 81.0617 100.483 80.7634 100.974H80.7208C80.7237 99.6534 81.2237 98.8693 82.0759 98.8693C82.6356 98.8693 82.9879 99.2102 83.1072 99.6932H83.9737C83.8402 98.7727 83.1157 98.1023 82.0759 98.1023C80.7237 98.1023 79.8799 99.2642 79.8799 101.287C79.8771 103.429 80.968 104.071 82.0021 104.08ZM81.9992 103.341C81.3231 103.341 80.8288 102.773 80.8288 102.119C80.8316 101.469 81.3487 100.901 82.0191 100.901C82.6839 100.901 83.1725 101.438 83.1697 102.111C83.1725 102.798 82.664 103.341 81.9992 103.341Z" fill="#5FCB79"/>
<path d="M72.7045 231H73.4091V228.398H75.9318V227.773H73.4091V225.807H76.1932V225.182H72.7045V231ZM78.8182 231.091C79.7045 231.091 80.3523 230.648 80.5568 229.989L79.9091 229.807C79.7386 230.261 79.3438 230.489 78.8182 230.489C78.0312 230.489 77.4886 229.98 77.4574 229.045H80.625V228.761C80.625 227.136 79.6591 226.58 78.75 226.58C77.5682 226.58 76.7841 227.511 76.7841 228.852C76.7841 230.193 77.5568 231.091 78.8182 231.091ZM77.4574 228.466C77.5028 227.787 77.983 227.182 78.75 227.182C79.4773 227.182 79.9432 227.727 79.9432 228.466H77.4574ZM81.7358 231H82.3835V230.33H82.4631C82.6108 230.568 82.8949 231.091 83.7358 231.091C84.8267 231.091 85.5881 230.216 85.5881 228.83C85.5881 227.455 84.8267 226.58 83.7244 226.58C82.8722 226.58 82.6108 227.102 82.4631 227.33H82.4062V225.182H81.7358V231ZM82.3949 228.818C82.3949 227.841 82.8267 227.182 83.6449 227.182C84.4972 227.182 84.9176 227.898 84.9176 228.818C84.9176 229.75 84.4858 230.489 83.6449 230.489C82.8381 230.489 82.3949 229.807 82.3949 228.818Z" fill="#5FCB79"/>
<path d="M71 118C71 115.791 72.7909 114 75 114H84C86.2091 114 88 115.791 88 118V216H71V118Z" fill="#5FCB79"/>
<path d="M112.901 142.056H116.73V141.303H114.111V141.261L115.267 140.05C116.332 138.974 116.636 138.46 116.636 137.809C116.636 136.874 115.875 136.158 114.778 136.158C113.69 136.158 112.895 136.863 112.895 137.925H113.733C113.73 137.3 114.133 136.891 114.761 136.891C115.352 136.891 115.801 137.255 115.801 137.835C115.801 138.349 115.494 138.718 114.869 139.38L112.901 141.42V142.056ZM119.741 136.158C118.52 136.147 117.722 137.025 117.722 138.127C117.724 139.238 118.528 140.039 119.537 140.039C120.153 140.039 120.682 139.738 120.98 139.249H121.026C121.023 140.587 120.52 141.369 119.668 141.369C119.111 141.369 118.753 141.028 118.639 140.531H117.773C117.901 141.471 118.628 142.136 119.668 142.136C121.02 142.136 121.866 140.974 121.866 138.937C121.864 136.812 120.778 136.167 119.741 136.158ZM119.744 136.897C120.418 136.897 120.915 137.468 120.915 138.107C120.918 138.755 120.392 139.323 119.727 139.323C119.06 139.323 118.577 138.789 118.574 138.116C118.574 137.44 119.077 136.897 119.744 136.897Z" fill="#4E5A65"/>
<path d="M110.705 225.182V231H111.364V226.58H111.42L113.239 231H113.875L115.693 226.58H115.75V231H116.409V225.182H115.568L113.591 230.011H113.523L111.545 225.182H110.705ZM119.015 231.102C119.776 231.102 120.174 230.693 120.31 230.409H120.344V231H121.015V228.125C121.015 226.739 119.958 226.58 119.401 226.58C118.742 226.58 117.992 226.807 117.651 227.602L118.288 227.83C118.435 227.511 118.785 227.17 119.424 227.17C120.04 227.17 120.344 227.497 120.344 228.057V228.08C120.344 228.403 120.015 228.375 119.219 228.477C118.41 228.582 117.526 228.761 117.526 229.761C117.526 230.614 118.185 231.102 119.015 231.102ZM119.117 230.5C118.583 230.5 118.197 230.261 118.197 229.795C118.197 229.284 118.663 229.125 119.185 229.057C119.469 229.023 120.231 228.943 120.344 228.807V229.42C120.344 229.966 119.913 230.5 119.117 230.5ZM122.239 231H122.909V228.239C122.909 227.648 123.375 227.216 124.011 227.216C124.19 227.216 124.375 227.25 124.42 227.261V226.58C124.344 226.574 124.168 226.568 124.068 226.568C123.545 226.568 123.091 226.864 122.932 227.295H122.886V226.636H122.239V231Z" fill="#4E5A65"/>
<path d="M109 156C109 153.791 110.791 152 113 152H122C124.209 152 126 153.791 126 156V216H109V156Z" fill="#F3F5F9"/>
<path d="M152.864 127.562C154.051 127.562 154.923 126.852 154.92 125.886C154.923 125.15 154.477 124.622 153.704 124.502V124.457C154.312 124.301 154.707 123.823 154.704 123.17C154.707 122.315 154.006 121.585 152.886 121.585C151.818 121.585 150.96 122.23 150.932 123.176H151.781C151.801 122.642 152.304 122.318 152.875 122.318C153.469 122.318 153.858 122.678 153.855 123.215C153.858 123.778 153.406 124.147 152.761 124.147H152.27V124.863H152.761C153.568 124.863 154.034 125.272 154.034 125.857C154.034 126.423 153.543 126.806 152.858 126.806C152.227 126.806 151.736 126.482 151.702 125.965H150.81C150.847 126.914 151.687 127.562 152.864 127.562ZM157.915 127.562C159.085 127.562 159.92 126.735 159.918 125.602C159.92 124.477 159.136 123.659 158.077 123.659C157.645 123.659 157.244 123.823 157.017 124.045H156.983L157.168 122.417H159.636V121.664H156.437L156.111 124.596L156.915 124.715C157.133 124.519 157.526 124.386 157.878 124.386C158.568 124.392 159.068 124.909 159.068 125.619C159.068 126.318 158.582 126.823 157.915 126.823C157.352 126.823 156.906 126.465 156.861 125.965H156.008C156.043 126.892 156.847 127.562 157.915 127.562Z" fill="#4E5A65"/>
<path d="M147.943 231L148.528 229.352H150.881L151.466 231H152.205L150.068 225.182H149.341L147.205 231H147.943ZM148.75 228.727L149.682 226.102H149.727L150.659 228.727H148.75ZM153.02 232.636H153.69V230.33H153.747C153.895 230.568 154.179 231.091 155.02 231.091C156.111 231.091 156.872 230.216 156.872 228.83C156.872 227.455 156.111 226.58 155.009 226.58C154.156 226.58 153.895 227.102 153.747 227.33H153.668V226.636H153.02V232.636ZM153.679 228.818C153.679 227.841 154.111 227.182 154.929 227.182C155.781 227.182 156.202 227.898 156.202 228.818C156.202 229.75 155.77 230.489 154.929 230.489C154.122 230.489 153.679 229.807 153.679 228.818ZM157.895 231H158.565V228.239C158.565 227.648 159.031 227.216 159.668 227.216C159.847 227.216 160.031 227.25 160.077 227.261V226.58C160 226.574 159.824 226.568 159.724 226.568C159.202 226.568 158.747 226.864 158.588 227.295H158.543V226.636H157.895V231Z" fill="#4E5A65"/>
<path d="M147 141C147 138.791 148.791 137 151 137H160C162.209 137 164 138.791 164 141V216H147V141Z" fill="#F3F5F9"/>
<path d="M188.901 149.491H192.73V148.738H190.111V148.696L191.267 147.486C192.332 146.409 192.636 145.895 192.636 145.244C192.636 144.309 191.875 143.593 190.778 143.593C189.69 143.593 188.895 144.298 188.895 145.361H189.733C189.73 144.736 190.133 144.326 190.761 144.326C191.352 144.326 191.801 144.69 191.801 145.27C191.801 145.784 191.494 146.153 190.869 146.815L188.901 148.855V149.491ZM195.838 149.571C197.054 149.582 197.861 148.707 197.858 147.591C197.861 146.477 197.051 145.679 196.043 145.679C195.429 145.679 194.898 145.974 194.599 146.466H194.557C194.56 145.145 195.06 144.361 195.912 144.361C196.472 144.361 196.824 144.701 196.943 145.184H197.81C197.676 144.264 196.952 143.593 195.912 143.593C194.56 143.593 193.716 144.755 193.716 146.778C193.713 148.92 194.804 149.562 195.838 149.571ZM195.835 148.832C195.159 148.832 194.665 148.264 194.665 147.611C194.668 146.96 195.185 146.392 195.855 146.392C196.52 146.392 197.008 146.929 197.006 147.602C197.008 148.29 196.5 148.832 195.835 148.832Z" fill="#4E5A65"/>
<path d="M186.705 225.182V231H187.364V226.58H187.42L189.239 231H189.875L191.693 226.58H191.75V231H192.409V225.182H191.568L189.591 230.011H189.523L187.545 225.182H186.705ZM195.015 231.102C195.776 231.102 196.174 230.693 196.31 230.409H196.344V231H197.015V228.125C197.015 226.739 195.958 226.58 195.401 226.58C194.742 226.58 193.992 226.807 193.651 227.602L194.288 227.83C194.435 227.511 194.785 227.17 195.424 227.17C196.04 227.17 196.344 227.497 196.344 228.057V228.08C196.344 228.403 196.015 228.375 195.219 228.477C194.41 228.582 193.526 228.761 193.526 229.761C193.526 230.614 194.185 231.102 195.015 231.102ZM195.117 230.5C194.583 230.5 194.197 230.261 194.197 229.795C194.197 229.284 194.663 229.125 195.185 229.057C195.469 229.023 196.231 228.943 196.344 228.807V229.42C196.344 229.966 195.913 230.5 195.117 230.5ZM198.514 232.636C199.119 232.636 199.545 232.315 199.798 231.636L201.656 226.648L200.923 226.636L199.719 230.114H199.673L198.469 226.636H197.741L199.355 231.023L199.23 231.364C198.986 232.028 198.685 232.091 198.196 231.966L198.026 232.557C198.094 232.591 198.287 232.636 198.514 232.636Z" fill="#4E5A65"/>
<path d="M185 163C185 160.791 186.791 159 189 159H198C200.209 159 202 160.791 202 163V216H185V163Z" fill="#F3F5F9"/>
</g>
<defs>
<clipPath id="clip0_0_1">
<rect width="1440" height="4699" fill="white" transform="translate(-1029 -3061)"/>
</clipPath>
</defs>
</svg>
